<?xml version="1.0" standalone="no"?>
<!DOCTYPE svg PUBLIC "-//W3C//DTD SVG 20010904//EN"
 "http://www.w3.org/TR/2001/REC-SVG-20010904/DTD/svg10.dtd">
<svg version="1.0" xmlns="http://www.w3.org/2000/svg"
 width="16.000000pt" height="16.000000pt" viewBox="0 0 16.000000 16.000000"
 preserveAspectRatio="xMidYMid meet">
<metadata>
Created by potrace 1.11, written by Peter Selinger 2001-2013
</metadata>
<g transform="translate(0.000000,16.000000) scale(0.001563,-0.001563)"
fill="#000000" stroke="none">
<path d="M2340 6906 c0 -55 -37 -160 -79 -222 -63 -94 -158 -157 -293 -194
-86 -23 -302 -50 -405 -50 l-73 0 0 -295 0 -295 380 0 380 0 0 -960 0 -960
-380 0 -380 0 0 -315 0 -315 1200 0 1200 0 0 315 0 315 -375 0 -375 0 0 1505
0 1505 -400 0 -400 0 0 -34z"/>
<path d="M3770 6933 c-1 -5 205 -824 457 -1820 l458 -1813 500 0 500 0 280
1120 c154 616 282 1120 285 1120 3 0 136 -503 296 -1117 l291 -1118 499 0 499
0 457 1805 c251 993 457 1811 457 1818 1 9 -97 12 -457 12 l-458 0 -259 -1202
c-142 -662 -261 -1212 -265 -1223 -5 -14 -11 -1 -22 45 -8 36 -138 586 -289
1223 l-274 1157 -451 0 -452 0 -303 -1215 c-167 -668 -306 -1211 -310 -1207
-3 4 -115 540 -248 1192 -134 652 -245 1195 -248 1208 l-5 22 -469 0 c-258 0
-469 -3 -469 -7z"/>
</g>
</svg>
