<?xml version="1.0" standalone="no"?>
<!DOCTYPE svg PUBLIC "-//W3C//DTD SVG 20010904//EN"
 "http://www.w3.org/TR/2001/REC-SVG-20010904/DTD/svg10.dtd">
<svg version="1.0" xmlns="http://www.w3.org/2000/svg"
 width="260.000000pt" height="260.000000pt" viewBox="0 0 260.000000 260.000000"
 preserveAspectRatio="xMidYMid meet">
<metadata>
Created by potrace 1.11, written by Peter Selinger 2001-2013
</metadata>
<g transform="translate(0.000000,260.000000) scale(0.100000,-0.100000)"
fill="#000000" stroke="none">
<path d="M1180 2594 c-313 -40 -565 -156 -777 -357 -185 -176 -313 -406 -374
-672 -32 -143 -32 -387 0 -530 118 -517 489 -888 1006 -1006 130 -29 386 -32
510 -5 533 116 915 498 1031 1031 27 124 24 380 -5 510 -118 520 -503 901
-1014 1006 -98 20 -302 32 -377 23z m-87 -789 c95 -110 235 -293 351 -459 l96
-139 0 342 0 341 135 0 135 0 0 -590 0 -590 -113 0 -113 0 -59 103 c-87 149
-280 436 -377 557 l-83 105 -3 -383 -2 -382 -135 0 -135 0 0 590 0 591 117 -3
117 -3 69 -80z"/>
</g>
</svg>
